<svg id="Layer_1" data-name="Layer 1" xmlns="http://www.w3.org/2000/svg" viewBox="0 0 163.99 61.61"><defs><style>.cls-1{stroke:#000;stroke-miterlimit:10;stroke-width:0.7px;}.cls-2{fill:#7b868c;}.cls-3{fill:#f5333f;}.cls-4{fill:#afa99f;}</style></defs><title>BRG-LOGO-COLOR-BLACK-V2</title><rect class="cls-1" x="0.35" y="0.35" width="163.29" height="60.91" rx="7"/><path class="cls-2" d="M12.83,46.33h3.68a4,4,0,0,1,1.08.13,2.55,2.55,0,0,1,.83.39,1.86,1.86,0,0,1,.55.64,1.93,1.93,0,0,1,.19.88,2.57,2.57,0,0,1-.15.94,1.87,1.87,0,0,1-.42.66,2.23,2.23,0,0,1-.67.44,4.78,4.78,0,0,1-.88.29l2.14,3.69H17.26L15,49.93l.38,0,.33,0a2.39,2.39,0,0,0,.66-.08,1.61,1.61,0,0,0,.55-.24,1.39,1.39,0,0,0,.37-.43,1.28,1.28,0,0,0,.14-.61,2,2,0,0,0-.05-.43.94.94,0,0,0-.2-.35,1.09,1.09,0,0,0-.39-.25,1.58,1.58,0,0,0-.62-.1H14.55v6.88H12.83Z" transform="translate(-3 -3.21)"/><polygon class="cls-2" points="28.41 44.4 24.35 44.4 24.35 46.5 27.89 46.5 27.89 47.69 24.35 47.69 24.35 49.9 28.41 49.9 28.41 51.18 22.52 51.18 22.52 43.12 28.41 43.12 28.41 44.4"/><path class="cls-2" d="M42.71,46.33H40.56L36.7,54.39h2l1.2-2.82H43l1.08,2.82H46Zm-2.33,4,1.2-2.69,1,2.69Z" transform="translate(-3 -3.21)"/><polygon class="cls-2" points="48.52 43.12 50.35 43.12 50.35 49.9 54.15 49.9 54.15 51.18 48.52 51.18 48.52 43.12"/><polygon class="cls-2" points="58.11 43.12 64.94 43.12 64.94 44.4 62.44 44.4 62.44 51.18 60.61 51.18 60.61 44.4 58.11 44.4 58.11 43.12"/><polygon class="cls-2" points="72.47 47.77 69.67 43.12 71.67 43.12 73.45 46.39 75.32 43.12 77.3 43.12 74.3 47.9 74.3 51.18 72.47 51.18 72.47 47.77"/><path class="cls-2" d="M102.44,49.78v4.39c-.52.11-1,.19-1.59.26a14,14,0,0,1-1.82.11,6.34,6.34,0,0,1-1.76-.25,4.23,4.23,0,0,1-1.46-.76,3.91,3.91,0,0,1-1-1.3,4.5,4.5,0,0,1-.37-1.88,4.3,4.3,0,0,1,.31-1.6,3.86,3.86,0,0,1,.91-1.32,4.61,4.61,0,0,1,1.51-.91,5.78,5.78,0,0,1,2.08-.34,10.39,10.39,0,0,1,1.37.09,13.51,13.51,0,0,1,1.37.23l.13,1.42a10.59,10.59,0,0,0-1.26-.33,7,7,0,0,0-1.29-.13,4.17,4.17,0,0,0-1.36.21,3,3,0,0,0-1,.59,2.56,2.56,0,0,0-.68.91,3,3,0,0,0-.23,1.18,3.6,3.6,0,0,0,.2,1.23,2.71,2.71,0,0,0,.57.91,2.46,2.46,0,0,0,.87.56,2.88,2.88,0,0,0,1.11.2,6.46,6.46,0,0,0,.92,0c.27,0,.52-.09.77-.15V51H99.26V49.78Z" transform="translate(-3 -3.21)"/><path class="cls-2" d="M109.13,46.33h3.69a4,4,0,0,1,1.07.13,2.71,2.71,0,0,1,.84.39,1.8,1.8,0,0,1,.73,1.52,2.57,2.57,0,0,1-.15.94,1.87,1.87,0,0,1-.42.66,2,2,0,0,1-.67.44,4.93,4.93,0,0,1-.87.29l2.14,3.69h-1.92l-2.27-4.46.38,0,.34,0a2.36,2.36,0,0,0,.65-.08,1.61,1.61,0,0,0,.55-.24,1.42,1.42,0,0,0,.38-.43,1.28,1.28,0,0,0,.13-.61,1.54,1.54,0,0,0,0-.43.82.82,0,0,0-.2-.35,1.09,1.09,0,0,0-.39-.25,1.53,1.53,0,0,0-.61-.1h-1.62v6.88h-1.73Z" transform="translate(-3 -3.21)"/><path class="cls-3" d="M130.19,48.48a3.38,3.38,0,0,0-1-1.29,4,4,0,0,0-1.45-.76,6.06,6.06,0,0,0-1.77-.25,5.94,5.94,0,0,0-1.76.25,4,4,0,0,0-1.46.76,3.38,3.38,0,0,0-1,1.29,4.3,4.3,0,0,0-.37,1.87,4.35,4.35,0,0,0,.37,1.88,3.66,3.66,0,0,0,1,1.3,4.14,4.14,0,0,0,1.46.76,6.29,6.29,0,0,0,1.76.25,6.41,6.41,0,0,0,1.77-.25,4.18,4.18,0,0,0,1.45-.76,3.66,3.66,0,0,0,1-1.3,4.35,4.35,0,0,0,.37-1.88A4.3,4.3,0,0,0,130.19,48.48Zm-1.66,3.1a2.43,2.43,0,0,1-.57.91,2.46,2.46,0,0,1-.87.56,2.85,2.85,0,0,1-1.11.2,2.88,2.88,0,0,1-1.11-.2,2.46,2.46,0,0,1-.87-.56,2.71,2.71,0,0,1-.57-.91,3.38,3.38,0,0,1-.2-1.23,3.32,3.32,0,0,1,.2-1.22,2.81,2.81,0,0,1,.57-.91,2.46,2.46,0,0,1,.87-.56,3.08,3.08,0,0,1,1.11-.2,3,3,0,0,1,1.11.2,2.46,2.46,0,0,1,.87.56,2.51,2.51,0,0,1,.57.91,3.32,3.32,0,0,1,.21,1.22A3.37,3.37,0,0,1,128.53,51.58Z" transform="translate(-3 -3.21)"/><path class="cls-2" d="M138.73,46.33v4.92a2.19,2.19,0,0,0,.44,1.47,2.36,2.36,0,0,0,3,0,2.24,2.24,0,0,0,.44-1.47V46.33h1.83v5.46a2.6,2.6,0,0,1-.27,1.23,2.32,2.32,0,0,1-.77.85,3.47,3.47,0,0,1-1.19.5,7,7,0,0,1-3.06,0,3.47,3.47,0,0,1-1.19-.5,2.32,2.32,0,0,1-.77-.85,2.6,2.6,0,0,1-.27-1.23V46.33Z" transform="translate(-3 -3.21)"/><path class="cls-2" d="M153.14,49.82l.38,0a2.88,2.88,0,0,0,.41,0,1.74,1.74,0,0,0,.74-.14,1.14,1.14,0,0,0,.45-.34,1.06,1.06,0,0,0,.23-.43,1.62,1.62,0,0,0,.06-.41,1.36,1.36,0,0,0-.09-.53.7.7,0,0,0-.23-.32.85.85,0,0,0-.36-.16,3.42,3.42,0,0,0-.46,0h-1.45v6.88h-1.73V46.33h3.81a2.42,2.42,0,0,1,1.08.21,1.81,1.81,0,0,1,.69.55,1.89,1.89,0,0,1,.36.74,3.12,3.12,0,0,1,.11.78,2.46,2.46,0,0,1-.21,1,2.17,2.17,0,0,1-.6.77,2.84,2.84,0,0,1-.89.49,3.59,3.59,0,0,1-1.11.17l-.43,0-.43,0Z" transform="translate(-3 -3.21)"/><path class="cls-4" d="M33.16,28.46a7.37,7.37,0,0,0-4.38-2.26v-.08a6.72,6.72,0,0,0,3.77-2.48,7.13,7.13,0,0,0,1.27-4.28,6.75,6.75,0,0,0-.62-3,6.11,6.11,0,0,0-1.65-2.06,6.51,6.51,0,0,0-2.31-1.19,9.45,9.45,0,0,0-2.63-.38H12.09V40.55H25.77a12.63,12.63,0,0,0,3.65-.5,8.87,8.87,0,0,0,2.84-1.4,6.45,6.45,0,0,0,1.86-2.17,6.08,6.08,0,0,0,.66-2.85A7.45,7.45,0,0,0,33.16,28.46ZM18.06,16.82h5.63a6.82,6.82,0,0,1,1.46.17,4.25,4.25,0,0,1,1.35.54,2.85,2.85,0,0,1,1,1,3,3,0,0,1,.38,1.54,4.11,4.11,0,0,1-.31,1.57,4.17,4.17,0,0,1-.88,1.29,4.48,4.48,0,0,1-1.36.9,4.34,4.34,0,0,1-1.71.33H18.06Zm9.59,18.41A4.8,4.8,0,0,1,24,36.46h-6V28.25h6.67a4.71,4.71,0,0,1,2.54.87,4.27,4.27,0,0,1,1.09,1.21,3.35,3.35,0,0,1,.46,1.8A4.31,4.31,0,0,1,27.65,35.23Z" transform="translate(-3 -3.21)"/><path class="cls-4" d="M45.29,22.49l.09.08a7.07,7.07,0,0,1,2.12-2.35,5.57,5.57,0,0,1,3.26-.9,8.43,8.43,0,0,1,1.79.21l.5,4.8a12.22,12.22,0,0,0-1.23-.25A7.33,7.33,0,0,0,50.67,24,4.93,4.93,0,0,0,47,25.43,6.41,6.41,0,0,0,45.58,30V40.55H39.74V19.82h5.55Z" transform="translate(-3 -3.21)"/><rect class="cls-4" x="54.18" y="9.27" width="5.96" height="3.84"/><rect class="cls-4" x="54.26" y="16.61" width="5.84" height="20.73"/><path class="cls-4" d="M84.87,40.34a28.08,28.08,0,0,1-2.83.52,21.22,21.22,0,0,1-2.88.19,13.72,13.72,0,0,1-4.5-.69,8.65,8.65,0,0,1-3.4-2.1,9.53,9.53,0,0,1-2.17-3.53,14.2,14.2,0,0,1-.77-4.94,13.6,13.6,0,0,1,.56-3.94,9,9,0,0,1,1.81-3.36A8.75,8.75,0,0,1,74,20.18a12.81,12.81,0,0,1,5-.86,23.62,23.62,0,0,1,6.13.79l.5,4.51a15.18,15.18,0,0,0-2.69-.9,12,12,0,0,0-2.73-.31,6.49,6.49,0,0,0-2.75.54,5.27,5.27,0,0,0-1.92,1.48,6.05,6.05,0,0,0-1.09,2.25,9.78,9.78,0,0,0-.25,2.86,7.47,7.47,0,0,0,1.65,4.65A5.66,5.66,0,0,0,80.33,37a11.9,11.9,0,0,0,5.09-1.16Z" transform="translate(-3 -3.21)"/><rect class="cls-4" x="88.09" y="9.52" width="5.84" height="27.82"/><polygon class="cls-4" points="101.06 16.61 107.61 16.61 100.14 25.75 108.82 37.34 102.56 37.34 94.3 25.75 101.06 16.61"/><path class="cls-4" d="M134.59,30.5V28.87a10.84,10.84,0,0,0-.79-4.31,8.3,8.3,0,0,0-2.15-3,8.84,8.84,0,0,0-3.19-1.71,14,14,0,0,0-4-.54,12.72,12.72,0,0,0-4.74.81,9,9,0,0,0-5.36,5.7,13.87,13.87,0,0,0-.67,4.38,12,12,0,0,0,.78,4.38A9.52,9.52,0,0,0,116.74,38a10,10,0,0,0,3.58,2.23,13.92,13.92,0,0,0,4.88.79,32.54,32.54,0,0,0,3.9-.21,34,34,0,0,0,3.4-.58l.55-4.38c-1.12.36-2.24.67-3.36.94a15.47,15.47,0,0,1-3.48.39,8.48,8.48,0,0,1-2.63-.39,6.11,6.11,0,0,1-2.11-1.17,5.34,5.34,0,0,1-1.4-1.9,6.35,6.35,0,0,1-.5-2.58V30.5ZM121,24.26a4.47,4.47,0,0,1,3.51-1.39A4.27,4.27,0,0,1,128,24.16,5.4,5.4,0,0,1,129,27.7h-9.47A5.74,5.74,0,0,1,121,24.26Z" transform="translate(-3 -3.21)"/><rect class="cls-4" x="136.51" y="9.52" width="5.84" height="27.82"/><rect class="cls-4" x="148.9" y="9.52" width="5.84" height="27.82"/></svg>